<svg xmlns="http://www.w3.org/2000/svg" aria-hidden="true" style="display:none">
  <symbol id="hf-home" viewBox="0 0 24 24"><path d="M3 11 12 3l9 8v10h-6v-6H9v6H3z"/></symbol>
  <symbol id="hf-my-day" viewBox="0 0 24 24"><path d="M4 5h16v14H4zM8 9h8m-8 4h8m-8 4h5"/></symbol>
  <symbol id="hf-habits" viewBox="0 0 24 24"><path d="M4 5h16v14H4zM8 9h8m-8 4h8m-8 4h5"/></symbol>
  <symbol id="hf-goals" viewBox="0 0 24 24"><path d="M4 5h16v14H4zM8 9h8m-8 4h8m-8 4h5"/></symbol>
  <symbol id="hf-progress" viewBox="0 0 24 24"><path d="M4 5h16v14H4zM8 9h8m-8 4h8m-8 4h5"/></symbol>
  <symbol id="hf-calendar" viewBox="0 0 24 24"><path d="M6 4h12v17H6zM4 8h16M9 2v4m6-4v4"/></symbol>
  <symbol id="hf-library" viewBox="0 0 24 24"><path d="M4 5h16v14H4zM8 9h8m-8 4h8m-8 4h5"/></symbol>
  <symbol id="hf-collections" viewBox="0 0 24 24"><path d="M4 5h16v14H4zM8 9h8m-8 4h8m-8 4h5"/></symbol>
  <symbol id="hf-weekly-review" viewBox="0 0 24 24"><path d="M4 5h16v14H4zM8 9h8m-8 4h8m-8 4h5"/></symbol>
  <symbol id="hf-reminders" viewBox="0 0 24 24"><path d="M4 5h16v14H4zM8 9h8m-8 4h8m-8 4h5"/></symbol>
  <symbol id="hf-notifications" viewBox="0 0 24 24"><path d="M18 9a6 6 0 0 0-12 0c0 7-3 7-3 9h18c0-2-3-2-3-9m-8 12h2"/></symbol>
  <symbol id="hf-reports" viewBox="0 0 24 24"><path d="M4 5h16v14H4zM8 9h8m-8 4h8m-8 4h5"/></symbol>
  <symbol id="hf-profile" viewBox="0 0 24 24"><path d="M12 12a4 4 0 1 0 0-8 4 4 0 0 0 0 8zM4 21a8 8 0 0 1 16 0"/></symbol>
  <symbol id="hf-plan" viewBox="0 0 24 24"><path d="M4 5h16v14H4zM8 9h8m-8 4h8m-8 4h5"/></symbol>
  <symbol id="hf-billing" viewBox="0 0 24 24"><path d="M4 5h16v14H4zM8 9h8m-8 4h8m-8 4h5"/></symbol>
  <symbol id="hf-help" viewBox="0 0 24 24"><path d="M4 5h16v14H4zM8 9h8m-8 4h8m-8 4h5"/></symbol>
  <symbol id="hf-privacy" viewBox="0 0 24 24"><path d="M4 5h16v14H4zM8 9h8m-8 4h8m-8 4h5"/></symbol>
  <symbol id="hf-support" viewBox="0 0 24 24"><path d="M4 5h16v14H4zM8 9h8m-8 4h8m-8 4h5"/></symbol>
  <symbol id="hf-settings" viewBox="0 0 24 24"><path d="M4 5h16v14H4zM8 9h8m-8 4h8m-8 4h5"/></symbol>
  <symbol id="hf-users" viewBox="0 0 24 24"><path d="M4 5h16v14H4zM8 9h8m-8 4h8m-8 4h5"/></symbol>
  <symbol id="hf-clients" viewBox="0 0 24 24"><path d="M4 5h16v14H4zM8 9h8m-8 4h8m-8 4h5"/></symbol>
  <symbol id="hf-audit" viewBox="0 0 24 24"><path d="M4 5h16v14H4zM8 9h8m-8 4h8m-8 4h5"/></symbol>
  <symbol id="hf-system-health" viewBox="0 0 24 24"><path d="M4 5h16v14H4zM8 9h8m-8 4h8m-8 4h5"/></symbol>
  <symbol id="hf-add" viewBox="0 0 24 24"><path d="M12 5v14M5 12h14"/></symbol>
  <symbol id="hf-edit" viewBox="0 0 24 24"><path d="M4 20h4L19 9l-4-4L4 16zM13 7l4 4"/></symbol>
  <symbol id="hf-delete" viewBox="0 0 24 24"><path d="M4 7h16M9 7V4h6v3m3 0-1 14H7L6 7"/></symbol>
  <symbol id="hf-pause" viewBox="0 0 24 24"><path d="M9 5v14m6-14v14"/></symbol>
  <symbol id="hf-resume" viewBox="0 0 24 24"><path d="M8 5v14l11-7z"/></symbol>
  <symbol id="hf-archive" viewBox="0 0 24 24"><path d="M4 5h16v14H4zM8 9h8m-8 4h8m-8 4h5"/></symbol>
  <symbol id="hf-restore" viewBox="0 0 24 24"><path d="M4 5h16v14H4zM8 9h8m-8 4h8m-8 4h5"/></symbol>
  <symbol id="hf-check" viewBox="0 0 24 24"><path d="m5 12 4 4L19 6"/></symbol>
  <symbol id="hf-undo" viewBox="0 0 24 24"><path d="M9 7 4 12l5 5M5 12h9a5 5 0 0 1 5 5"/></symbol>
  <symbol id="hf-move" viewBox="0 0 24 24"><path d="M12 2v20m0-20-3 3m3-3 3 3M2 12h20m-20 0 3-3m-3 3 3 3"/></symbol>
  <symbol id="hf-sort" viewBox="0 0 24 24"><path d="M8 6h13M8 12h9M8 18h5M3 6h.01M3 12h.01M3 18h.01"/></symbol>
  <symbol id="hf-filter" viewBox="0 0 24 24"><path d="M3 5h18l-7 8v6l-4 2v-8z"/></symbol>
  <symbol id="hf-search" viewBox="0 0 24 24"><path d="m21 21-4.4-4.4M19 11a8 8 0 1 1-16 0 8 8 0 0 1 16 0"/></symbol>
  <symbol id="hf-close" viewBox="0 0 24 24"><path d="m6 6 12 12M18 6 6 18"/></symbol>
  <symbol id="hf-information" viewBox="0 0 24 24"><path d="M12 21a9 9 0 1 0 0-18 9 9 0 0 0 0 18zM12 11v6M12 7h.01"/></symbol>
  <symbol id="hf-warning" viewBox="0 0 24 24"><path d="M12 3 2 21h20zM12 9v5M12 18h.01"/></symbol>
  <symbol id="hf-error" viewBox="0 0 24 24"><path d="M12 21a9 9 0 1 0 0-18 9 9 0 0 0 0 18zM9 9l6 6m0-6-6 6"/></symbol>
  <symbol id="hf-success" viewBox="0 0 24 24"><path d="M12 21a9 9 0 1 0 0-18 9 9 0 0 0 0 18zm-4-9 3 3 5-6"/></symbol>
</svg>
